HIERARCHY
ROOT Hips
{
 OFFSET 0.000000 0.000000 0.000000
 CHANNELS 6 Xposition Yposition Zposition Yrotation Xrotation Zrotation
 JOINT Chest
 {
  OFFSET 0.000000 9.585900 0.002600
  CHANNELS 3 Yrotation Xrotation Zrotation
  JOINT Chest2
  {
   OFFSET 0.000000 9.601200 -0.005300
   CHANNELS 3 Yrotation Xrotation Zrotation
   JOINT Chest3
   {
    OFFSET 0.000000 9.561800 0.000000
    CHANNELS 3 Yrotation Xrotation Zrotation
    JOINT Chest4
    {
     OFFSET 0.000000 9.552100 0.000000
     CHANNELS 3 Yrotation Xrotation Zrotation
     JOINT Neck
     {
      OFFSET 0.000000 14.453000 0.000000
      CHANNELS 3 Yrotation Xrotation Zrotation
      JOINT Head
      {
       OFFSET 0.000000 8.936500 -0.011300
       CHANNELS 3 Yrotation Xrotation Zrotation
       End Site
       {
        OFFSET 0.000000 17.073600 -0.006000
       }
      }
     }
     JOINT RightCollar
     {
      OFFSET -2.921100 9.558500 0.000000
      CHANNELS 3 Yrotation Xrotation Zrotation
      JOINT RightShoulder
      {
       OFFSET -13.519700 0.000000 0.000000
       CHANNELS 3 Yrotation Xrotation Zrotation
       JOINT RightElbow
       {
        OFFSET 0.000000 -29.696600 0.000000
        CHANNELS 3 Yrotation Xrotation Zrotation
        JOINT RightWrist
        {
         OFFSET 0.000000 -24.004700 0.000000
         CHANNELS 3 Yrotation Xrotation Zrotation
         End Site
         {
          OFFSET 0.000000 -17.728500 0.000000
         }
        }
       }
      }
     }
     JOINT LeftCollar
     {
      OFFSET 2.921100 9.558500 0.000000
      CHANNELS 3 Yrotation Xrotation Zrotation
      JOINT LeftShoulder
      {
       OFFSET 13.519700 0.000000 0.000000
       CHANNELS 3 Yrotation Xrotation Zrotation
       JOINT LeftElbow
       {
        OFFSET 0.000000 -29.696600 0.000000
        CHANNELS 3 Yrotation Xrotation Zrotation
        JOINT LeftWrist
        {
         OFFSET 0.000000 -24.004700 0.000000
         CHANNELS 3 Yrotation Xrotation Zrotation
         End Site
         {
          OFFSET 0.000000 -17.728500 0.000000
         }
        }
       }
      }
     }
    }
   }
  }
 }
 JOINT RightHip
 {
  OFFSET -7.771700 -0.012900 -0.001300
  CHANNELS 3 Yrotation Xrotation Zrotation
  JOINT RightKnee
  {
   OFFSET 0.000000 -40.869800 0.001200
   CHANNELS 3 Yrotation Xrotation Zrotation
   JOINT RightAnkle
   {
    OFFSET 0.000000 -39.717900 0.002100
    CHANNELS 3 Yrotation Xrotation Zrotation
    JOINT RightToe
    {
     OFFSET 0.000000 -4.965400 11.033500
     CHANNELS 3 Yrotation Xrotation Zrotation
     End Site
     {
      OFFSET 0.000000 -1.423100 5.872300
     }
    }
   }
  }
 }
 JOINT LeftHip
 {
  OFFSET 7.771700 -0.012900 -0.001300
  CHANNELS 3 Yrotation Xrotation Zrotation
  JOINT LeftKnee
  {
   OFFSET 0.000000 -40.869800 0.001200
   CHANNELS 3 Yrotation Xrotation Zrotation
   JOINT LeftAnkle
   {
    OFFSET 0.000000 -39.717900 0.002100
    CHANNELS 3 Yrotation Xrotation Zrotation
    JOINT LeftToe
    {
     OFFSET 0.000000 -4.965400 11.033500
     CHANNELS 3 Yrotation Xrotation Zrotation
     End Site
     {
      OFFSET 0.000000 -1.423100 5.872300
     }
    }
   }
  }
 }
}
MOTION
Frames: 12
Frame Time: 0.008333
0.000000 85.388000 0.000000 0.000000 -5.767877 0.000000 0.000000 11.653817 0.000000 0.000000 -5.885947 0.000000 0.000000 -0.000000 0.000000 0.000000 -0.000000 0.000000 0.000000 12.528835 0.000000 0.000000 0.711642 0.000000 0.000000 -0.000000 0.000000 0.000000 0.000000 -90.000000 0.000000 -2.309062 0.000000 0.000000 2.309062 0.000000 0.000000 -0.000000 0.000000 0.000000 -0.000000 90.000000 0.000000 -2.309062 0.000000 0.000000 2.309062 0.000000 0.000000 8.520406 0.000000 0.000000 1.905762 0.000000 -0.000000 -4.658285 0.000000 0.000000 -0.000000 0.000000 0.000000 8.520406 0.000000 0.000000 1.905762 0.000000 -0.000000 -4.658285 0.000000 0.000000 -0.000000 0.000000
-20.629328 58.063336 13.559989 175.548314 -50.923952 -3.134166 2.878898 22.220117 1.949031 1.494108 12.714638 0.982965 1.908806 15.894189 1.291832 1.493270 12.716294 0.983038 2.075655 17.909166 4.734132 2.342642 -2.549689 8.056388 4.815447 -0.274959 0.028176 3.131351 -16.765335 -5.413346 -9.085046 -51.704302 50.214206 22.434746 9.276712 -2.789948 -12.249624 0.635545 -2.944394 -4.619087 -35.443498 1.992349 45.319955 -17.475353 -31.360583 -3.261683 1.797653 12.095080 1.581604 -21.094216 -2.027201 -32.294311 73.302640 -36.216448 6.830791 -13.252268 10.555010 0.034135 -0.066353 0.004494 -1.895758 -18.090153 8.105927 83.833682 84.197798 84.173118 -0.200084 -22.439806 -15.755739 -0.005140 0.050143 -0.006258
-20.630875 58.063572 13.559062 175.547091 -50.921466 -3.130490 2.876740 22.220776 1.946672 1.489721 12.717518 0.981169 1.909640 15.890301 1.288919 1.494096 12.714675 0.983384 2.046149 17.915989 4.715969 2.242146 -2.522520 8.013038 4.821206 -0.273860 0.023411 3.121196 -16.756261 -5.412629 -9.090067 -51.706532 50.218575 22.440398 9.271310 -2.785098 -12.262908 0.646540 -2.942284 -4.600317 -35.440822 1.983144 45.283860 -17.500167 -31.365500 -3.246151 1.787299 12.106605 1.580605 -21.097409 -2.031228 -32.295967 73.306504 -36.220606 6.833200 -13.257241 10.558314 0.035599 -0.067514 0.004031 -1.893049 -18.092347 8.100881 83.845330 84.195733 84.185719 -0.201954 -22.438502 -15.756224 -0.005059 0.048109 -0.004590
-20.632161 58.064273 13.557662 175.545110 -50.921870 -3.128705 2.877350 22.224057 1.945253 1.490100 12.715072 0.981615 1.904122 15.892342 1.287069 1.495651 12.712312 0.981437 2.017868 17.922466 4.699703 2.181598 -2.506780 7.981216 4.832208 -0.268049 0.016414 3.107282 -16.749468 -5.407913 -9.096437 -51.708847 50.221544 22.441438 9.274499 -2.780657 -12.270485 0.651066 -2.937232 -4.573200 -35.439254 1.968573 45.244500 -17.518538 -31.363561 -3.284567 1.786528 12.133057 1.581162 -21.096562 -2.031715 -32.299508 73.309769 -36.224099 6.833422 -13.265858 10.556851 0.036938 -0.065682 0.006981 -1.890946 -18.086500 8.101092 83.813966 84.193148 84.152536 -0.209041 -22.444791 -15.754950 -0.004933 0.053567 -0.002355
-20.634256 58.063609 13.557197 175.550195 -50.910992 -3.128923 2.871676 22.219587 1.941278 1.487852 12.714012 0.980151 1.900910 15.888904 1.287254 1.484951 12.711978 0.978615 2.015718 17.925095 4.688255 2.125325 -2.494028 7.950212 4.853427 -0.262582 0.006608 3.094098 -16.745997 -5.402472 -9.094522 -51.709504 50.219185 22.436907 9.274846 -2.781582 -12.261419 0.651281 -2.937404 -4.566291 -35.430341 1.963401 45.210790 -17.545692 -31.361791 -3.282385 1.788562 12.148750 1.577870 -21.106490 -2.036432 -32.306536 73.311654 -36.230240 6.828234 -13.276599 10.557451 0.037741 -0.060890 0.008201 -1.893533 -18.096772 8.097845 83.822557 84.189557 84.158606 -0.216243 -22.447770 -15.751764 -0.004388 0.055940 -0.001636
-20.636565 58.063571 13.556133 175.551630 -50.905049 -3.125439 2.867888 22.224133 1.942886 1.482415 12.710267 0.977909 1.899871 15.883277 1.283410 1.483078 12.709850 0.976277 2.002725 17.929824 4.676875 2.069448 -2.481408 7.915661 4.860563 -0.252966 -0.002097 3.079966 -16.746177 -5.396617 -9.089113 -51.710118 50.216585 22.433816 9.278559 -2.786281 -12.262908 0.652368 -2.937688 -4.549733 -35.400408 1.962076 45.171231 -17.583747 -31.378208 -3.250128 1.788444 12.154516 1.572596 -21.112511 -2.048540 -32.287126 73.316818 -36.212571 6.840136 -13.284005 10.556685 0.019223 -0.063444 0.006919 -1.892961 -18.102404 8.093990 83.822834 84.187590 84.156623 -0.226336 -22.447919 -15.745749 -0.000978 0.055165 -0.002236
-20.639388 58.062922 13.555504 175.558406 -50.894236 -3.123719 2.860775 22.218799 1.939468 1.480196 12.709495 0.977673 1.897080 15.882420 1.283021 1.482895 12.706153 0.971895 1.972431 17.933571 4.658700 2.028390 -2.468094 7.881992 4.860188 -0.244430 -0.007270 3.071987 -16.736220 -5.394649 -9.092828 -51.723167 50.221241 22.420848 9.288031 -2.796658 -12.275806 0.654674 -2.938830 -4.537519 -35.388452 1.971163 45.131011 -17.612990 -31.380937 -3.261187 1.789546 12.172162 1.569711 -21.123372 -2.056259 -32.300427 73.316675 -36.225704 6.826841 -13.285697 10.558805 0.030636 -0.061381 0.008029 -1.897268 -18.114241 8.087516 83.830237 84.186531 84.159897 -0.231042 -22.446797 -15.741888 0.000387 0.054791 -0.001598
-20.641645 58.062969 13.554417 175.562463 -50.888831 -3.123346 2.856946 22.218168 1.938752 1.478703 12.709651 0.977415 1.894446 15.885316 1.282202 1.481546 12.700617 0.974906 1.945004 17.938429 4.635200 2.002758 -2.461932 7.857135 4.859928 -0.237881 -0.016484 3.072868 -16.741699 -5.393439 -9.091060 -51.723170 50.219051 22.419331 9.287050 -2.798527 -12.284778 0.655713 -2.948621 -4.527708 -35.375800 1.983181 45.083303 -17.647186 -31.384616 -3.343309 1.786736 12.203937 1.564731 -21.126828 -2.062538 -32.295938 73.316820 -36.224511 6.835321 -13.296313 10.558477 0.039167 -0.057500 0.010223 -1.899494 -18.119842 8.082607 83.827078 84.184697 84.155318 -0.231015 -22.445370 -15.741249 0.001507 0.054365 -0.000834
-20.643932 58.062408 13.553859 175.561536 -50.878945 -3.119316 2.855547 22.210060 1.935656 1.478259 12.709833 0.977264 1.893112 15.888219 1.281557 1.479920 12.704583 0.977604 1.890025 17.955396 4.590721 2.039842 -2.480219 7.868008 4.858220 -0.237904 -0.021054 3.074237 -16.741866 -5.393284 -9.088677 -51.729292 50.219889 22.415169 9.287668 -2.803968 -12.290450 0.648848 -2.954540 -4.518088 -35.357966 1.992751 45.025046 -17.689059 -31.385727 -3.352392 1.780716 12.219733 1.566783 -21.137268 -2.068068 -32.309768 73.316491 -36.236124 6.831081 -13.299164 10.559299 0.025842 -0.058464 0.009397 -1.898206 -18.129372 8.077836 83.817990 84.183510 84.146252 -0.230822 -22.445540 -15.741639 0.003639 0.054807 0.000064
-20.646224 58.062116 13.553096 175.560439 -50.871139 -3.115079 2.851493 22.209795 1.928530 1.478514 12.711434 0.976830 1.894945 15.884732 1.282026 1.478569 12.711409 0.976892 1.879695 17.950875 4.580338 1.935092 -2.455580 7.796738 4.856985 -0.241192 -0.020446 3.064274 -16.728291 -5.404013 -9.103818 -51.748720 50.250221 22.415542 9.291546 -2.800452 -12.295408 0.642551 -2.947231 -4.506767 -35.348470 1.992083 44.996317 -17.714765 -31.389587 -3.393400 1.770393 12.234397 1.566222 -21.145324 -2.077976 -32.301053 73.318744 -36.226923 6.842503 -13.302882 10.558564 0.029834 -0.062376 0.009302 -1.896817 -18.136839 8.072676 83.812504 84.182231 84.140146 -0.231350 -22.444820 -15.740251 0.006673 0.053896 -0.000155
-20.647852 58.061870 13.552383 175.556680 -50.863448 -3.112771 2.858079 22.221765 1.935296 1.474209 12.702753 0.974174 1.894684 15.886728 1.281496 1.478147 12.713146 0.976523 1.865492 17.944525 4.567484 1.861198 -2.436312 7.747267 4.853256 -0.246160 -0.022918 3.062630 -16.726244 -5.413264 -9.118987 -51.758410 50.270823 22.411891 9.291428 -2.805581 -12.313547 0.632319 -2.946475 -4.490746 -35.348820 1.994316 44.907359 -17.766384 -31.365360 -3.367937 1.750086 12.248504 1.570359 -21.155038 -2.077644 -32.301448 73.320829 -36.228002 6.843935 -13.301731 10.561127 0.028107 -0.065034 0.008673 -1.890932 -18.142689 8.074230 83.794065 84.180340 84.123148 -0.236886 -22.447123 -15.737893 0.003217 0.055746 0.000451
-20.649761 58.061236 13.551907 175.554341 -50.852447 -3.110010 2.859694 22.214177 1.934813 1.479178 12.713912 0.976728 1.902411 15.895256 1.284568 1.480475 12.713278 0.976792 1.828067 17.939501 4.546179 1.812527 -2.429218 7.716512 4.836548 -0.265110 -0.023535 3.055627 -16.719526 -5.417625 -9.130289 -51.768425 50.288641 22.405670 9.293462 -2.806201 -12.336347 0.612142 -2.943811 -4.483067 -35.333518 1.999686 44.815524 -17.828522 -31.350762 -3.330434 1.714238 12.257191 1.573457 -21.167264 -2.078086 -32.300520 73.322098 -36.228705 6.838285 -13.301881 10.562605 0.029359 -0.065046 0.010694 -1.889396 -18.153666 8.073703 83.811651 84.175703 84.139200 -0.242232 -22.448606 -15.736018 0.010597 0.055684 0.001971
